<svg width="18" height="13" viewBox="0 0 18 13" fill="none" xmlns="http://www.w3.org/2000/svg">
<path d="M8.315 12.3075C8.39145 12.4185 8.49375 12.5093 8.61308 12.572C8.73241 12.6347 8.86519 12.6675 9 12.6675C9.13481 12.6675 9.2676 12.6347 9.38693 12.572C9.50626 12.5093 9.60855 12.4185 9.685 12.3075L17.185 1.47416C17.2718 1.3492 17.3227 1.20285 17.3322 1.05099C17.3417 0.89914 17.3093 0.747593 17.2387 0.612818C17.1681 0.478044 17.0619 0.365197 16.9317 0.286538C16.8015 0.20788 16.6522 0.166418 16.5 0.166658H1.5C1.3482 0.167285 1.19945 0.20928 1.06973 0.288127C0.94002 0.366974 0.834253 0.479689 0.763808 0.614152C0.693363 0.748614 0.660905 0.899737 0.669925 1.05127C0.678945 1.2028 0.729101 1.349 0.815001 1.47416L8.315 12.3075Z" fill="white"/>
</svg>
