<svg width="17" height="13" viewBox="0 0 17 13" fill="none" xmlns="http://www.w3.org/2000/svg">
<path d="M9.01881 0.36002C8.94236 0.248986 8.84006 0.1582 8.72073 0.0954816C8.6014 0.0327635 8.46862 -6.61742e-06 8.33381 -6.62921e-06C8.199 -6.64099e-06 8.06621 0.0327635 7.94688 0.0954816C7.82755 0.1582 7.72526 0.248986 7.64881 0.36002L0.148808 11.1934C0.0619954 11.3183 0.0110873 11.4647 0.00161314 11.6165C-0.00786101 11.7684 0.0244616 11.9199 0.09507 12.0547C0.165678 12.1895 0.271872 12.3023 0.402112 12.381C0.532352 12.4596 0.681658 12.5011 0.833808 12.5009L15.8338 12.5009C15.9856 12.5002 16.1344 12.4582 16.2641 12.3794C16.3938 12.3005 16.4996 12.1878 16.57 12.0534C16.6404 11.9189 16.6729 11.7678 16.6639 11.6162C16.6549 11.4647 16.6047 11.3185 16.5188 11.1934L9.01881 0.36002Z" fill="white"/>
</svg>
